<svg width="414" height="324" viewBox="0 0 414 324" fill="none" xmlns="http://www.w3.org/2000/svg">
<g clip-path="url(#clip0)">
<path d="M266.653 103.194H255.667C255.314 103.196 254.974 103.065 254.713 102.829C254.452 102.592 254.289 102.267 254.256 101.917L252.057 79.4227H270.263L268.064 101.917C268.031 102.267 267.868 102.592 267.607 102.829C267.346 103.065 267.006 103.196 266.653 103.194Z" fill="#E6E6E6"/>
<path d="M270.234 82.2527H252.086C251.71 82.2522 251.349 82.103 251.084 81.8378C250.818 81.5725 250.668 81.2128 250.668 80.8377V77.4417C250.668 77.0666 250.818 76.707 251.084 76.4417C251.349 76.1764 251.71 76.0272 252.086 76.0268H270.234C270.61 76.0272 270.97 76.1764 271.236 76.4417C271.502 76.707 271.651 77.0666 271.652 77.4417V80.8377C271.651 81.2128 271.502 81.5725 271.236 81.8377C270.97 82.103 270.61 82.2522 270.234 82.2527Z" fill="#CCCCCC"/>
<path d="M138.117 79.0298H94.5947V65.8443C108.348 56.2927 120.533 57.1229 136.563 66.6199L138.117 79.0298Z" fill="#FC9216"/>
<path d="M84.5169 313.233L74.9886 313.232L73.564 276.555L84.5184 276.556L84.5169 313.233Z" fill="#FFB8B8"/>
<path d="M86.9463 322.45L56.2236 322.449V322.061C56.2236 320.494 56.5329 318.942 57.1339 317.494C57.7348 316.047 58.6156 314.731 59.7261 313.623C60.8365 312.515 62.1548 311.636 63.6056 311.036C65.0564 310.436 66.6115 310.128 68.1818 310.128H68.1826L86.9469 310.128L86.9463 322.45Z" fill="#2F2E41"/>
<path d="M138.184 313.233L147.712 313.232L149.137 276.555L138.182 276.556L138.184 313.233Z" fill="#FFB8B8"/>
<path d="M135.754 310.128L154.518 310.128H154.519C156.089 310.128 157.644 310.436 159.095 311.036C160.546 311.636 161.864 312.515 162.975 313.623C164.085 314.731 164.966 316.047 165.567 317.494C166.168 318.942 166.477 320.494 166.477 322.061V322.449L135.755 322.45L135.754 310.128Z" fill="#2F2E41"/>
<path d="M138.434 308.532C137.639 308.53 136.869 308.258 136.248 307.762C135.628 307.266 135.195 306.574 135.019 305.8L111.403 203C111.352 202.739 111.209 202.505 111.001 202.338C110.793 202.171 110.532 202.084 110.266 202.09H110.26C109.992 202.085 109.731 202.175 109.523 202.344C109.315 202.512 109.174 202.749 109.125 203.012L87.4377 305.118C87.2686 305.9 86.8372 306.6 86.215 307.103C85.5928 307.606 84.8171 307.882 84.0163 307.885H73.6854C73.2087 307.885 72.7371 307.787 72.2994 307.599C71.8618 307.41 71.4674 307.135 71.1404 306.788C70.8135 306.442 70.5609 306.033 70.3981 305.586C70.2354 305.139 70.166 304.663 70.1941 304.188L77.8889 174.772L80.9853 173.858L81.0434 173.859L141.865 174.39L154.818 303.663C154.864 304.124 154.816 304.59 154.679 305.033C154.543 305.475 154.319 305.886 154.021 306.242C153.723 306.597 153.357 306.89 152.945 307.102C152.532 307.315 152.082 307.444 151.619 307.481L138.715 308.521C138.621 308.528 138.527 308.532 138.434 308.532Z" fill="#2F2E41"/>
<path d="M113.318 55.3982C123.86 55.3982 132.406 46.8692 132.406 36.3482C132.406 25.8272 123.86 17.2982 113.318 17.2982C102.775 17.2982 94.2291 25.8272 94.2291 36.3482C94.2291 46.8692 102.775 55.3982 113.318 55.3982Z" fill="#FFB8B8"/>
<path d="M101.624 188.961C98.2754 189.003 94.9399 188.534 91.7326 187.572C88.8799 186.714 86.2335 185.281 83.9563 183.364C81.679 181.447 79.819 179.084 78.4908 176.423C78.0699 175.622 77.9765 174.689 78.2304 173.821C80.3356 166.65 90.5089 129.377 84.018 99.7469C83.1017 95.6307 83.0256 91.3726 83.7941 87.2264C84.5625 83.0802 86.1598 79.1309 88.4907 75.6141C90.7674 72.1249 93.7249 69.1291 97.1869 66.8053C100.649 64.4815 104.544 62.8773 108.641 62.0885L108.641 62.0877C109.718 61.8779 110.8 61.706 111.858 61.5757C116.386 61.0194 120.982 61.4689 125.316 62.892C129.65 64.3151 133.616 66.6766 136.928 69.8076C140.34 73 143.001 76.9056 144.723 81.2447C146.445 85.5838 147.185 90.2492 146.889 94.9069L141.9 174.799C141.865 175.398 141.676 175.977 141.349 176.481C141.022 176.984 140.57 177.394 140.036 177.671C134.291 180.676 117.032 188.961 101.624 188.961Z" fill="#3F3D56"/>
<path d="M134.882 22.3256C132.899 17.3524 129.267 13.2084 124.592 10.5852C119.917 7.96198 114.482 7.01834 109.194 7.91178L115.212 12.7654C107.735 13.0167 99.8633 12.4824 94.5242 17.7134C96.2239 17.6663 98.4517 21.2946 100.151 21.2476C96.9736 21.3103 94.092 23.5387 92.6883 26.3847C91.3883 29.3086 91.0842 32.5771 91.8225 35.6898C92.4502 38.7995 97.2381 46.0844 98.5268 48.984C98.3052 41.4061 113.254 23.3309 120.554 25.2173C116.845 26.5905 113.627 29.029 111.305 32.2252C116.271 29.724 121.887 28.8069 127.393 29.5981C128.65 29.8858 129.947 29.9583 131.229 29.8124C132.014 29.6573 132.747 29.3039 133.356 28.7859C133.966 28.2679 134.432 27.6025 134.71 26.8534C134.989 26.1044 135.07 25.2965 134.947 24.5071C134.823 23.7177 134.499 22.9731 134.005 22.3443L134.882 22.3256Z" fill="#2F2E41"/>
<path d="M100.309 184.164C99.827 184.163 99.3502 184.063 98.9087 183.869L62.6913 168.093C61.922 167.763 61.2976 167.168 60.933 166.416C60.5684 165.664 60.4882 164.806 60.707 164L84.6831 73.6099C85.1289 71.928 85.9063 70.3518 86.9699 68.9734C88.0336 67.595 89.362 66.4422 90.8775 65.5825C92.3931 64.7228 94.0652 64.1734 95.7961 63.9665C97.527 63.7595 99.2818 63.8993 100.958 64.3775L110.545 67.1081L103.796 180.876C103.761 181.438 103.592 181.982 103.301 182.464C103.011 182.946 102.609 183.351 102.128 183.645C101.582 183.983 100.952 184.162 100.309 184.164Z" fill="#FC9216"/>
<path d="M167.34 163.999L165.746 158.003L163.438 149.285L162.327 145.105L160.019 136.41L143.363 73.6082C142.919 71.9256 142.142 70.3485 141.079 68.9694C140.016 67.5903 138.687 66.4371 137.171 65.5774C135.656 64.7176 133.983 64.1687 132.252 63.9628C130.52 63.7569 128.765 63.8982 127.089 64.3784L117.506 67.1085L122.255 147.129L122.745 155.483L123.056 160.749V160.757L123.553 169.064L124.252 180.876C124.31 181.763 124.701 182.596 125.349 183.206C125.996 183.816 126.851 184.159 127.742 184.165C128.223 184.162 128.699 184.062 129.141 183.87L165.358 168.094C166.127 167.765 166.752 167.169 167.116 166.416C167.481 165.664 167.56 164.805 167.34 163.999Z" fill="#FC9216"/>
<path d="M162.326 145.105L122.745 155.483L122.255 147.129L160.019 136.41L162.326 145.105Z" fill="#CCCCCC"/>
<path d="M165.746 158.003L123.552 169.064L123.056 160.757V160.749L163.439 149.285L165.746 158.003Z" fill="#CCCCCC"/>
<path d="M105.305 148.929L104.815 157.127L65.9949 145.586L68.2712 137.007L105.305 148.929Z" fill="#CCCCCC"/>
<path d="M104.496 162.525L64.8826 149.766L62.6055 158.368L104.014 170.677L104.496 162.525Z" fill="#CCCCCC"/>
<path d="M65.5736 171.099C66.7546 170.791 67.8537 170.229 68.7934 169.451C69.7331 168.674 70.4906 167.701 71.0125 166.599C71.5344 165.498 71.808 164.296 71.8141 163.078C71.8202 161.86 71.5586 160.656 71.0477 159.549L89.6707 101.203L76.4652 98.4428L59.3912 155.647C57.5859 156.627 56.2033 158.233 55.5055 160.162C54.8078 162.091 54.8433 164.209 55.6053 166.113C56.3674 168.018 57.803 169.577 59.6403 170.496C61.4775 171.415 63.5886 171.63 65.5736 171.099Z" fill="#FFB8B8"/>
<path d="M90.1877 72.519C93.9796 72.9051 96.1125 77.16 95.1697 82.4579L90.6455 107.881C90.3064 109.787 88.7348 111.296 87.4285 110.97L72.1253 107.153C70.9478 106.859 70.5141 105.189 71.1814 103.519L80.3683 80.519C82.3634 75.5241 86.5113 72.1448 90.1877 72.519Z" fill="#3F3D56"/>
<path d="M113.247 0.692322C119.708 0.693013 125.914 3.20306 130.553 7.69096C135.191 12.1789 137.897 18.2922 138.098 24.7365H142.781C143.193 24.7365 143.588 24.9 143.88 25.1909C144.171 25.4818 144.335 25.8763 144.335 26.2877V32.4927C144.335 32.9041 144.171 33.2986 143.88 33.5895C143.588 33.8805 143.193 34.0439 142.781 34.0439H89.9318C89.5196 34.0439 89.1242 33.8805 88.8327 33.5895C88.5412 33.2986 88.3775 32.9041 88.3774 32.4927V25.5121C88.3774 22.2527 89.0207 19.0252 90.2706 16.0139C91.5204 13.0027 93.3523 10.2665 95.6617 7.96182C97.9711 5.65709 100.713 3.82887 103.73 2.58157C106.747 1.33426 109.981 0.692302 113.247 0.692322Z" fill="#FC9216"/>
<path d="M116.219 154.113H105.233C104.881 154.115 104.54 153.984 104.279 153.748C104.018 153.512 103.855 153.186 103.822 152.836L101.623 130.342H119.829L117.63 152.836C117.597 153.186 117.434 153.511 117.173 153.748C116.912 153.984 116.572 154.115 116.219 154.113Z" fill="#E6E6E6"/>
<path d="M119.8 133.172H101.652C101.276 133.171 100.916 133.022 100.65 132.757C100.384 132.492 100.235 132.132 100.234 131.757V128.361C100.235 127.986 100.384 127.626 100.65 127.361C100.916 127.095 101.276 126.946 101.652 126.946H119.8C120.176 126.946 120.537 127.095 120.802 127.361C121.068 127.626 121.218 127.986 121.218 128.361V131.757C121.218 132.132 121.068 132.492 120.802 132.757C120.537 133.022 120.176 133.171 119.8 133.172Z" fill="#CCCCCC"/>
<path d="M110.962 142.05C111.389 142.099 111.812 142.182 112.226 142.298L141.484 117.257L139.774 108.07L153.33 103.682L157.942 119.653C158.314 120.943 158.257 122.319 157.779 123.574C157.302 124.83 156.429 125.896 155.292 126.614L118.237 150.015C118.264 151.668 117.785 153.29 116.865 154.665C115.945 156.04 114.628 157.103 113.087 157.712C111.547 158.322 109.858 158.449 108.244 158.077C106.63 157.705 105.167 156.851 104.051 155.629C102.935 154.407 102.218 152.875 101.996 151.237C101.773 149.598 102.056 147.931 102.806 146.457C103.557 144.983 104.739 143.772 106.196 142.985C107.652 142.197 109.315 141.871 110.962 142.05V142.05Z" fill="#FFB8B8"/>
<path d="M141.56 74.619C145.611 73.4875 149.658 76.5642 151.014 81.8058L157.522 106.959C158.009 108.845 157.062 110.849 155.582 111.061L138.246 113.55C136.912 113.741 135.736 112.376 135.687 110.578L135.014 85.8254C134.868 80.4499 137.633 75.7161 141.56 74.619Z" fill="#3F3D56"/>
<path d="M374.586 235.294C366.604 224.698 360.294 212.945 355.875 200.444C355.619 199.696 355.638 198.882 355.927 198.146C356.216 197.411 356.757 196.801 357.454 196.427L384.769 181.82C385.211 181.582 385.701 181.448 386.203 181.428C386.705 181.407 387.205 181.502 387.664 181.703C388.133 181.906 388.548 182.213 388.88 182.601C389.211 182.989 389.45 183.447 389.577 183.94C392.756 195.987 398.732 207.117 407.022 216.431C407.363 216.81 407.613 217.262 407.753 217.752C407.893 218.242 407.919 218.758 407.829 219.26C407.742 219.753 407.544 220.221 407.249 220.626C406.954 221.032 406.57 221.365 406.127 221.6L378.813 236.207C378.114 236.578 377.306 236.691 376.532 236.524C375.758 236.356 375.069 235.921 374.586 235.294Z" fill="#CCCCCC"/>
<path d="M376.45 233.896C376.597 234.079 376.804 234.205 377.034 234.252C377.264 234.3 377.503 234.266 377.711 234.156L405.026 219.549C405.158 219.48 405.273 219.382 405.361 219.261C405.449 219.14 405.508 219.001 405.533 218.854C405.561 218.698 405.553 218.538 405.51 218.387C405.466 218.235 405.387 218.095 405.28 217.979C396.747 208.39 390.595 196.932 387.322 184.53C387.284 184.377 387.211 184.235 387.109 184.114C387.007 183.994 386.878 183.898 386.733 183.836C386.596 183.775 386.447 183.746 386.297 183.753C386.147 183.759 386.001 183.799 385.87 183.872L358.556 198.478C358.349 198.589 358.187 198.769 358.1 198.987C358.012 199.205 358.003 199.446 358.074 199.67C362.414 211.947 368.611 223.49 376.45 233.896V233.896Z" fill="white"/>
<path d="M386.562 202.665L371.686 209.219C371.12 209.467 370.478 209.481 369.902 209.259C369.325 209.036 368.861 208.594 368.611 208.03L368.243 207.198C367.994 206.633 367.98 205.993 368.203 205.418C368.426 204.842 368.869 204.379 369.435 204.129L384.311 197.576C384.877 197.327 385.518 197.313 386.095 197.536C386.671 197.759 387.135 198.201 387.386 198.765L387.754 199.597C388.003 200.161 388.017 200.801 387.794 201.377C387.57 201.952 387.127 202.415 386.562 202.665Z" fill="#CCCCCC"/>
<path d="M392.002 212.748L377.126 219.302C376.56 219.55 375.918 219.565 375.342 219.342C374.766 219.119 374.301 218.677 374.051 218.113L373.683 217.281C373.434 216.716 373.42 216.076 373.643 215.501C373.867 214.925 374.309 214.462 374.875 214.212L389.751 207.659C390.317 207.41 390.959 207.396 391.535 207.619C392.111 207.842 392.576 208.284 392.826 208.848L393.194 209.68C393.443 210.244 393.457 210.884 393.234 211.46C393.011 212.035 392.568 212.498 392.002 212.748Z" fill="#CCCCCC"/>
<path d="M357.112 204.346C356.085 203.687 355.216 202.812 354.565 201.781C353.915 200.751 353.498 199.59 353.345 198.382C353.192 197.173 353.307 195.946 353.681 194.786C354.055 193.627 354.679 192.563 355.509 191.67L349.235 102.817L367.307 104.566L367.804 191.58C369.214 193.072 370.027 195.028 370.089 197.078C370.151 199.128 369.457 201.129 368.14 202.703C366.822 204.276 364.971 205.313 362.939 205.616C360.906 205.918 358.833 205.467 357.112 204.346L357.112 204.346Z" fill="#A0616A"/>
<path d="M353.326 132.673C352.903 132.369 352.554 131.974 352.304 131.518C352.054 131.061 351.909 130.555 351.882 130.035L350.558 106.087C350.427 103.715 351.18 101.378 352.674 99.5267C354.167 97.6759 356.294 96.4424 358.645 96.0641C360.995 95.6857 363.403 96.1892 365.404 97.4777C367.404 98.7661 368.856 100.748 369.479 103.042L375.296 124.452C375.538 125.346 375.415 126.298 374.953 127.101C374.492 127.904 373.731 128.491 372.836 128.734L356.289 133.212C355.786 133.349 355.259 133.371 354.746 133.278C354.234 133.185 353.748 132.978 353.326 132.673Z" fill="#3F3D56"/>
<path d="M322.525 313.583H312.997L308.464 276.906H322.527L322.525 313.583Z" fill="#A0616A"/>
<path d="M306.191 310.866H324.567V322.412H294.621C294.621 320.896 294.92 319.394 295.502 317.994C296.083 316.593 296.935 315.32 298.01 314.248C299.084 313.175 300.36 312.325 301.763 311.745C303.167 311.164 304.672 310.866 306.191 310.866Z" fill="#2F2E41"/>
<path d="M358.276 313.583H348.747L344.215 276.906H358.277L358.276 313.583Z" fill="#A0616A"/>
<path d="M341.942 310.866H360.317V322.412H330.372C330.372 320.896 330.671 319.394 331.252 317.994C331.834 316.593 332.686 315.32 333.76 314.248C334.835 313.175 336.11 312.325 337.514 311.745C338.918 311.164 340.422 310.866 341.942 310.866Z" fill="#2F2E41"/>
<path d="M322.075 295.106L311.586 294.607C310.692 294.564 309.849 294.182 309.229 293.538C308.61 292.894 308.261 292.038 308.255 291.145C305.49 248.549 301.66 202.874 307.523 185.229C307.519 184.726 307.625 184.229 307.832 183.771C308.039 183.312 308.343 182.904 308.723 182.574C309.102 182.243 309.549 181.999 310.032 181.856C310.516 181.714 311.024 181.678 311.523 181.75L353.486 187.83C354.315 187.945 355.074 188.356 355.625 188.986C356.175 189.615 356.479 190.422 356.481 191.258C361.838 212.15 362.08 250.035 361.878 289.4C361.881 289.86 361.793 290.317 361.619 290.744C361.445 291.17 361.188 291.558 360.863 291.885C360.538 292.212 360.151 292.471 359.725 292.648C359.299 292.825 358.842 292.917 358.38 292.917H347.072C346.238 292.92 345.43 292.624 344.796 292.083C344.162 291.542 343.744 290.792 343.618 289.969L336.641 245.706C336.539 245.059 336.205 244.47 335.702 244.048C335.199 243.627 334.56 243.401 333.903 243.413C333.247 243.425 332.616 243.674 332.129 244.114C331.642 244.554 331.331 245.155 331.253 245.805L325.714 292.034C325.61 292.881 325.199 293.661 324.56 294.227C323.921 294.793 323.096 295.107 322.241 295.11C322.186 295.11 322.131 295.109 322.075 295.106Z" fill="#2F2E41"/>
<path d="M329.459 191.262C320.211 186.134 312.985 184.787 309.501 184.44C309.038 184.395 308.589 184.257 308.181 184.034C307.773 183.811 307.414 183.508 307.128 183.142C306.834 182.775 306.619 182.351 306.495 181.897C306.37 181.444 306.339 180.97 306.404 180.504L316.459 106.006C317.038 101.647 318.724 97.5091 321.359 93.9851C323.993 90.4612 327.487 87.6685 331.508 85.8728C335.4 84.0871 339.686 83.3251 343.957 83.6592C348.228 83.9933 352.342 85.4124 355.908 87.7816C356.253 88.0103 356.591 88.2439 356.922 88.4822C361.029 91.4852 364.153 95.6341 365.901 100.406C367.649 105.178 367.942 110.36 366.743 115.298C360.577 140.471 358.46 181.739 358.098 189.756C358.069 190.44 357.839 191.099 357.435 191.652C357.031 192.205 356.473 192.626 355.83 192.863C352.036 194.239 348.033 194.95 343.996 194.965C338.912 194.996 333.906 193.721 329.459 191.262Z" fill="#3F3D56"/>
<path d="M337.869 75.7573C348.412 75.7573 356.958 67.2283 356.958 56.7073C356.958 46.1863 348.412 37.6573 337.869 37.6573C327.327 37.6573 318.781 46.1863 318.781 56.7073C318.781 67.2283 327.327 75.7573 337.869 75.7573Z" fill="#A0616A"/>
<path d="M351.377 71.7788C347.816 75.5644 341.203 73.5322 340.739 68.3605C340.702 67.959 340.705 67.5549 340.747 67.1539C340.986 64.8631 342.312 62.7833 341.995 60.3644C341.923 59.7624 341.698 59.1887 341.342 58.6977C338.504 54.9054 331.843 60.3939 329.165 56.9609C327.523 54.8558 329.453 51.5415 328.193 49.1888C326.53 46.0835 321.603 47.6153 318.514 45.9148C315.076 44.0226 315.282 38.7595 317.545 35.5582C320.304 31.654 325.142 29.5708 329.92 29.2705C334.698 28.9703 339.443 30.2593 343.904 31.9941C348.972 33.9652 353.997 36.6893 357.116 41.1367C360.909 46.5452 361.274 53.8165 359.377 60.1407C358.223 63.9878 354.285 68.6874 351.377 71.7788Z" fill="#2F2E41"/>
<path d="M366.494 90.2995C366.16 88.7328 363.292 86.5921 359.189 84.8469C352.593 82.1808 345.459 81.1072 338.368 81.7137C331.278 82.3203 324.431 84.5897 318.386 88.3372C317.965 88.3598 317.562 88.5201 317.24 88.7934C316.919 89.0666 316.696 89.4378 316.606 89.8497L302.803 150.774L301.008 158.709L299.819 163.96L298.024 171.871L297.068 176.098C297.007 176.369 297.004 176.649 297.06 176.92C297.116 177.191 297.23 177.448 297.393 177.672C297.557 177.896 297.766 178.082 298.008 178.219C298.249 178.355 298.517 178.439 298.793 178.464L358.396 183.599C358.45 183.599 358.512 183.606 358.567 183.606C359.058 183.603 359.531 183.415 359.888 183.078C360.246 182.741 360.463 182.281 360.494 181.791L361.061 173.174L361.668 163.96L361.932 159.966L362.53 150.774L366.502 90.4003V90.3461L366.494 90.2995Z" fill="#FF9315"/>
<path d="M268.697 94.1345C268.792 94.553 268.854 94.9783 268.883 95.4066L302.269 114.628L310.384 109.966L319.035 121.268L301.675 133.617L263.586 103.629C262.033 104.203 260.341 104.291 258.736 103.882C257.131 103.473 255.689 102.585 254.602 101.338C253.515 100.091 252.833 98.5437 252.649 96.9009C252.464 95.2581 252.785 93.5982 253.569 92.1419C254.353 90.6857 255.563 89.5021 257.037 88.7485C258.511 87.995 260.181 87.7072 261.823 87.9236C263.465 88.1399 265.002 88.85 266.23 89.9594C267.458 91.0689 268.318 92.5251 268.697 94.1345H268.697Z" fill="#A0616A"/>
<path d="M303.461 112.993C303.406 112.476 303.467 111.953 303.641 111.463C303.815 110.972 304.097 110.527 304.466 110.16L321.458 93.1983C323.142 91.5179 325.389 90.5191 327.767 90.3945C330.145 90.2698 332.485 91.0281 334.335 92.5232C336.186 94.0183 337.416 96.1443 337.789 98.4911C338.163 100.838 337.652 103.24 336.355 105.233L324.255 123.842C323.749 124.617 322.956 125.161 322.049 125.354C321.142 125.547 320.195 125.372 319.417 124.869L305.036 115.555C304.598 115.273 304.229 114.896 303.957 114.453C303.684 114.01 303.515 113.511 303.461 112.993Z" fill="#3F3D56"/>
<path d="M362.53 150.774L361.932 159.966L301.008 158.709L302.803 150.774H362.53Z" fill="#CCCCCC"/>
<path d="M361.668 163.96L361.061 173.174L298.024 171.871L299.82 163.96H361.668Z" fill="#CCCCCC"/>
<path d="M338.243 19.695C331.783 19.6957 325.576 22.2057 320.938 26.6936C316.3 31.1815 313.594 37.2949 313.393 43.7392H308.71C308.298 43.7392 307.903 43.9026 307.611 44.1935C307.32 44.4844 307.156 44.879 307.156 45.2904V51.4953C307.156 51.9068 307.32 52.3013 307.611 52.5922C307.903 52.8831 308.298 53.0466 308.71 53.0466H361.559C361.971 53.0466 362.367 52.8831 362.658 52.5922C362.95 52.3013 363.113 51.9068 363.113 51.4953V44.5147C363.113 41.2553 362.47 38.0279 361.22 35.0166C359.97 32.0053 358.138 29.2692 355.829 26.9645C353.52 24.6597 350.778 22.8315 347.761 21.5842C344.743 20.3369 341.509 19.695 338.243 19.695Z" fill="#FC9216"/>
</g>
<defs>
<clipPath id="clip0">
<rect width="577.997" height="323.045" fill="white" transform="translate(-134.209 0.692322)"/>
</clipPath>
</defs>
</svg>
