<svg width="1115" height="624" viewBox="0 0 1115 624" fill="none" xmlns="http://www.w3.org/2000/svg">
<g clip-path="url(#clip0)">
<path d="M773.294 197.995H752.101C751.421 197.997 750.764 197.745 750.261 197.289C749.757 196.832 749.442 196.204 749.378 195.528L745.136 152.077H780.258L776.016 195.527C775.952 196.204 775.637 196.832 775.134 197.289C774.63 197.745 773.974 197.997 773.294 197.995Z" fill="#E6E6E6"/>
<path d="M780.202 157.544H745.192C744.467 157.543 743.772 157.254 743.259 156.742C742.746 156.23 742.458 155.535 742.457 154.81V148.251C742.458 147.526 742.746 146.831 743.259 146.319C743.772 145.807 744.467 145.518 745.192 145.517H780.202C780.927 145.518 781.622 145.807 782.135 146.319C782.648 146.831 782.936 147.526 782.937 148.251V154.81C782.936 155.535 782.648 156.23 782.135 156.742C781.622 157.254 780.927 157.543 780.202 157.544Z" fill="#CCCCCC"/>
<path d="M525.339 151.318H441.381V125.849C467.911 107.399 491.418 109.002 522.341 127.347L525.339 151.318Z" fill="#FC9216"/>
<path d="M421.939 603.71L403.558 603.708L400.81 532.862L421.942 532.863L421.939 603.71Z" fill="#FFB8B8"/>
<path d="M426.626 621.514L367.36 621.512V620.763C367.36 617.735 367.956 614.738 369.116 611.941C370.275 609.144 371.974 606.603 374.116 604.462C376.258 602.322 378.801 600.624 381.6 599.466C384.399 598.307 387.399 597.711 390.428 597.711H390.43L426.627 597.712L426.626 621.514Z" fill="#2F2E41"/>
<path d="M525.467 603.71L543.848 603.708L546.596 532.862L525.464 532.863L525.467 603.71Z" fill="#FFB8B8"/>
<path d="M520.78 597.712L556.977 597.711H556.979C560.008 597.711 563.008 598.307 565.807 599.466C568.605 600.624 571.148 602.322 573.29 604.462C575.433 606.603 577.132 609.144 578.291 611.941C579.45 614.738 580.047 617.735 580.047 620.763V621.512L520.781 621.514L520.78 597.712Z" fill="#2F2E41"/>
<path d="M525.951 594.629C524.417 594.624 522.93 594.1 521.734 593.141C520.537 592.183 519.701 590.847 519.363 589.352L473.806 390.782C473.706 390.277 473.431 389.824 473.029 389.503C472.628 389.181 472.125 389.011 471.611 389.023H471.599C471.083 389.014 470.579 389.187 470.179 389.513C469.778 389.839 469.506 390.297 469.41 390.804L427.574 588.035C427.248 589.544 426.416 590.896 425.215 591.868C424.015 592.84 422.519 593.373 420.974 593.378H401.045C400.125 593.378 399.215 593.19 398.371 592.826C397.527 592.462 396.766 591.93 396.135 591.261C395.505 590.592 395.017 589.802 394.704 588.938C394.39 588.074 394.256 587.156 394.31 586.239L409.154 336.256L415.127 334.49L415.239 334.491L532.568 335.517L557.556 585.225C557.644 586.115 557.553 587.014 557.288 587.869C557.024 588.724 556.592 589.518 556.018 590.205C555.443 590.891 554.738 591.456 553.942 591.867C553.147 592.278 552.277 592.527 551.385 592.599L526.491 594.607C526.31 594.622 526.13 594.629 525.951 594.629Z" fill="#2F2E41"/>
<path d="M477.499 105.671C497.836 105.671 514.322 89.1961 514.322 68.8735C514.322 48.5509 497.836 32.0762 477.499 32.0762C457.162 32.0762 440.676 48.5509 440.676 68.8735C440.676 89.1961 457.162 105.671 477.499 105.671Z" fill="#FFB8B8"/>
<path d="M454.941 363.664C448.481 363.744 442.046 362.839 435.859 360.98C430.356 359.322 425.251 356.556 420.858 352.852C416.465 349.148 412.877 344.585 410.314 339.444C409.502 337.897 409.322 336.095 409.812 334.418C413.873 320.567 433.498 248.57 420.977 191.336C419.209 183.385 419.062 175.16 420.545 167.151C422.027 159.142 425.109 151.513 429.605 144.72C433.997 137.981 439.702 132.194 446.381 127.705C453.059 123.216 460.574 120.118 468.476 118.594L468.477 118.593C470.553 118.187 472.642 117.855 474.682 117.603C483.418 116.529 492.283 117.397 500.644 120.146C509.005 122.895 516.654 127.457 523.045 133.504C529.625 139.671 534.76 147.215 538.082 155.596C541.404 163.978 542.83 172.99 542.259 181.987L532.635 336.307C532.569 337.464 532.203 338.584 531.572 339.556C530.942 340.529 530.069 341.321 529.04 341.855C517.957 347.659 484.663 363.664 454.941 363.664Z" fill="#3F3D56"/>
<path d="M519.098 41.7873C515.272 32.181 508.266 24.1762 499.247 19.1092C490.229 14.0422 479.744 12.2195 469.543 13.9452L481.153 23.3207C466.728 23.8061 451.544 22.774 441.244 32.8782C444.523 32.7873 448.821 39.7958 452.1 39.7049C445.969 39.8261 440.411 44.1304 437.703 49.6278C435.195 55.2757 434.608 61.5891 436.033 67.6019C437.243 73.6084 446.48 87.6802 448.966 93.2811C448.538 78.6435 477.375 43.7291 491.457 47.3728C484.303 50.0255 478.095 54.7357 473.615 60.9095C483.195 56.0781 494.03 54.3066 504.651 55.835C507.076 56.3907 509.578 56.5307 512.05 56.2489C513.565 55.9494 514.978 55.2667 516.154 54.2661C517.33 53.2655 518.229 51.9803 518.766 50.5333C519.304 49.0864 519.461 47.5259 519.222 46.0011C518.984 44.4762 518.359 43.0379 517.406 41.8234L519.098 41.7873Z" fill="#2F2E41"/>
<path d="M452.404 354.397C451.474 354.395 450.554 354.201 449.703 353.827L379.837 323.354C378.352 322.718 377.148 321.568 376.445 320.115C375.741 318.663 375.587 317.005 376.009 315.448L422.26 140.849C423.12 137.6 424.62 134.555 426.672 131.893C428.724 129.23 431.286 127.004 434.21 125.343C437.133 123.682 440.359 122.621 443.698 122.221C447.037 121.822 450.422 122.092 453.656 123.015L472.15 128.29L459.13 348.047C459.064 349.131 458.736 350.183 458.176 351.114C457.616 352.045 456.84 352.827 455.913 353.395C454.859 354.047 453.644 354.394 452.404 354.397Z" fill="#FC9216"/>
<path d="M581.711 315.446L578.637 303.865L574.185 287.025L572.041 278.95L567.588 262.155L535.459 140.846C534.602 137.596 533.104 134.549 531.053 131.885C529.002 129.221 526.439 126.994 523.514 125.333C520.59 123.673 517.363 122.612 514.023 122.214C510.684 121.817 507.298 122.09 504.065 123.017L485.579 128.291L494.739 282.86L495.684 298.996L496.284 309.168V309.183L497.243 325.229L498.593 348.047C498.703 349.76 499.458 351.368 500.707 352.547C501.956 353.725 503.606 354.387 505.324 354.399C506.253 354.394 507.171 354.2 508.023 353.83L577.888 323.356C579.373 322.721 580.578 321.57 581.28 320.116C581.983 318.662 582.136 317.004 581.711 315.446Z" fill="#FC9216"/>
<path d="M572.04 278.95L495.685 298.996L494.739 282.86L567.589 262.155L572.04 278.95Z" fill="#CCCCCC"/>
<path d="M578.637 303.865L497.242 325.229L496.284 309.183V309.168L574.185 287.025L578.637 303.865Z" fill="#CCCCCC"/>
<path d="M462.041 286.336L461.095 302.172L386.209 279.879L390.601 263.309L462.041 286.336Z" fill="#CCCCCC"/>
<path d="M460.481 312.599L384.064 287.954L379.671 304.569L459.551 328.345L460.481 312.599Z" fill="#CCCCCC"/>
<path d="M385.396 329.16C387.675 328.566 389.795 327.48 391.608 325.978C393.42 324.477 394.882 322.596 395.888 320.469C396.895 318.342 397.423 316.021 397.435 313.668C397.447 311.315 396.942 308.988 395.957 306.851L431.882 194.148L406.407 188.817L373.47 299.313C369.988 301.206 367.321 304.309 365.974 308.035C364.628 311.761 364.697 315.851 366.167 319.53C367.637 323.209 370.407 326.222 373.951 327.997C377.495 329.771 381.567 330.186 385.396 329.16Z" fill="#FFB8B8"/>
<path d="M432.879 138.742C440.194 139.487 444.308 147.706 442.489 157.94L433.762 207.049C433.108 210.73 430.076 213.645 427.556 213.015L398.035 205.641C395.764 205.074 394.927 201.848 396.214 198.621L413.937 154.195C417.785 144.547 425.787 138.019 432.879 138.742Z" fill="#3F3D56"/>
<path d="M477.363 8.45155e-10C489.825 0.00133577 501.798 4.84979 510.746 13.5187C519.694 22.1876 524.914 33.9963 525.301 46.4442H534.334C535.13 46.4442 535.892 46.7599 536.455 47.3218C537.017 47.8838 537.333 48.6459 537.333 49.4406V61.4262C537.333 62.2209 537.017 62.983 536.455 63.5449C535.892 64.1068 535.13 64.4225 534.334 64.4226H432.385C431.59 64.4225 430.827 64.1068 430.265 63.5449C429.703 62.983 429.387 62.2209 429.387 61.4262V47.9423C429.387 41.6464 430.628 35.4122 433.039 29.5955C435.45 23.7789 438.984 18.4938 443.439 14.0419C447.894 9.59003 453.182 6.05861 459.003 3.6493C464.824 1.23999 471.063 -3.73813e-05 477.363 8.45155e-10Z" fill="#FC9216"/>
<path d="M483.096 296.351H461.903C461.223 296.353 460.566 296.101 460.063 295.645C459.559 295.188 459.244 294.56 459.18 293.884L454.938 250.433H490.06L485.818 293.883C485.754 294.56 485.439 295.188 484.936 295.645C484.432 296.101 483.776 296.353 483.096 296.351Z" fill="#E6E6E6"/>
<path d="M490.004 255.9H454.994C454.269 255.899 453.574 255.611 453.061 255.098C452.549 254.586 452.26 253.891 452.259 253.167V246.607C452.26 245.882 452.549 245.187 453.061 244.675C453.574 244.163 454.269 243.874 454.994 243.874H490.004C490.729 243.874 491.424 244.163 491.937 244.675C492.45 245.187 492.738 245.882 492.739 246.607V253.167C492.738 253.891 492.45 254.586 491.937 255.098C491.424 255.611 490.729 255.899 490.004 255.9Z" fill="#CCCCCC"/>
<path d="M472.954 273.049C473.778 273.144 474.593 273.304 475.392 273.527L531.833 225.159L528.534 207.413L554.685 198.936L563.581 229.786C564.3 232.279 564.19 234.937 563.268 237.361C562.346 239.786 560.663 241.846 558.469 243.233L486.989 288.434C487.039 291.628 486.116 294.761 484.341 297.417C482.567 300.073 480.025 302.126 477.054 303.303C474.083 304.48 470.824 304.726 467.71 304.007C464.597 303.288 461.775 301.639 459.622 299.279C457.469 296.919 456.086 293.959 455.658 290.795C455.229 287.63 455.774 284.41 457.221 281.562C458.668 278.715 460.949 276.375 463.759 274.854C466.57 273.334 469.777 272.704 472.954 273.049V273.049Z" fill="#FFB8B8"/>
<path d="M531.98 142.798C539.794 140.612 547.601 146.556 550.217 156.68L562.771 205.267C563.712 208.909 561.885 212.78 559.03 213.19L525.586 217.997C523.013 218.367 520.746 215.73 520.651 212.257L519.353 164.445C519.071 154.061 524.405 144.917 531.98 142.798Z" fill="#3F3D56"/>
<path d="M981.505 453.16C966.108 432.693 953.935 409.991 945.41 385.844C944.917 384.399 944.952 382.827 945.509 381.406C946.067 379.985 947.112 378.808 948.457 378.084L1001.15 349.87C1002 349.411 1002.95 349.151 1003.91 349.112C1004.88 349.073 1005.85 349.255 1006.73 349.644C1007.64 350.036 1008.44 350.629 1009.08 351.378C1009.72 352.127 1010.18 353.011 1010.42 353.965C1016.56 377.234 1028.08 398.734 1044.08 416.725C1044.73 417.458 1045.22 418.33 1045.49 419.277C1045.76 420.224 1045.81 421.22 1045.63 422.189C1045.47 423.142 1045.08 424.045 1044.51 424.829C1043.95 425.612 1043.2 426.256 1042.35 426.71L989.658 454.924C988.31 455.642 986.751 455.859 985.258 455.536C983.765 455.213 982.435 454.371 981.505 453.16Z" fill="#CCCCCC"/>
<path d="M985.101 450.46C985.385 450.814 985.783 451.057 986.227 451.149C986.671 451.241 987.133 451.175 987.533 450.962L1040.23 422.748C1040.48 422.615 1040.7 422.424 1040.87 422.191C1041.04 421.958 1041.16 421.689 1041.2 421.404C1041.26 421.104 1041.24 420.795 1041.16 420.502C1041.07 420.209 1040.92 419.939 1040.72 419.714C1024.25 401.193 1012.39 379.06 1006.07 355.105C1006 354.809 1005.86 354.534 1005.66 354.301C1005.47 354.068 1005.22 353.884 1004.94 353.764C1004.67 353.646 1004.39 353.591 1004.1 353.603C1003.81 353.614 1003.53 353.693 1003.27 353.833L950.581 382.046C950.182 382.261 949.871 382.609 949.701 383.03C949.531 383.45 949.514 383.917 949.652 384.349C958.024 408.064 969.979 430.36 985.101 450.461V450.46Z" fill="white"/>
<path d="M1004.61 390.134L975.909 402.793C974.818 403.273 973.58 403.301 972.468 402.87C971.357 402.44 970.461 401.586 969.978 400.497L969.268 398.89C968.788 397.799 968.76 396.562 969.191 395.451C969.622 394.34 970.476 393.445 971.567 392.963L1000.27 380.304C1001.36 379.824 1002.59 379.796 1003.71 380.226C1004.82 380.657 1005.71 381.511 1006.2 382.6L1006.91 384.207C1007.39 385.298 1007.41 386.534 1006.98 387.646C1006.55 388.757 1005.7 389.652 1004.61 390.134Z" fill="#CCCCCC"/>
<path d="M1015.1 409.611L986.404 422.27C985.313 422.75 984.075 422.778 982.963 422.347C981.851 421.917 980.956 421.063 980.473 419.973L979.763 418.366C979.283 417.276 979.255 416.039 979.686 414.928C980.117 413.817 980.971 412.922 982.062 412.439L1010.76 399.78C1011.85 399.3 1013.09 399.272 1014.2 399.703C1015.31 400.134 1016.21 400.987 1016.69 402.077L1017.4 403.684C1017.88 404.775 1017.91 406.011 1017.48 407.122C1017.05 408.233 1016.19 409.128 1015.1 409.611Z" fill="#CCCCCC"/>
<path d="M947.796 393.382C945.816 392.109 944.139 390.417 942.883 388.427C941.628 386.436 940.824 384.195 940.53 381.86C940.235 379.526 940.456 377.155 941.177 374.915C941.898 372.676 943.102 370.621 944.704 368.896L932.601 197.266L967.464 200.645L968.421 368.723C971.142 371.604 972.711 375.382 972.83 379.342C972.95 383.301 971.611 387.167 969.069 390.207C966.527 393.246 962.957 395.248 959.036 395.834C955.115 396.419 951.116 395.546 947.796 393.382L947.796 393.382Z" fill="#A0616A"/>
<path d="M940.493 254.936C939.676 254.349 939.002 253.587 938.52 252.705C938.038 251.824 937.76 250.845 937.706 249.841L935.152 203.583C934.899 199 936.353 194.486 939.234 190.91C942.114 187.335 946.218 184.953 950.752 184.222C955.287 183.491 959.932 184.464 963.791 186.952C967.651 189.441 970.451 193.27 971.653 197.7L982.874 239.057C983.341 240.783 983.103 242.623 982.213 244.174C981.323 245.724 979.854 246.859 978.128 247.328L946.208 255.977C945.238 256.242 944.222 256.286 943.232 256.105C942.243 255.925 941.307 255.526 940.493 254.936Z" fill="#3F3D56"/>
<path d="M881.075 604.385H862.694L853.951 533.539H881.078L881.075 604.385Z" fill="#A0616A"/>
<path d="M849.565 599.137H885.013V621.44H827.246C827.246 618.511 827.823 615.611 828.945 612.905C830.067 610.199 831.711 607.74 833.783 605.669C835.856 603.598 838.316 601.955 841.024 600.835C843.732 599.714 846.634 599.137 849.565 599.137Z" fill="#2F2E41"/>
<path d="M950.041 604.385H931.66L922.916 533.539H950.044L950.041 604.385Z" fill="#A0616A"/>
<path d="M918.531 599.137H953.979V621.44H896.212C896.212 618.511 896.789 615.611 897.911 612.905C899.032 610.199 900.677 607.74 902.749 605.669C904.822 603.598 907.282 601.955 909.99 600.835C912.698 599.714 915.6 599.137 918.531 599.137Z" fill="#2F2E41"/>
<path d="M880.207 568.694L859.972 567.73C858.249 567.649 856.622 566.91 855.427 565.666C854.231 564.422 853.559 562.768 853.547 561.044C848.212 478.764 840.824 390.538 852.135 356.455C852.128 355.484 852.331 354.523 852.731 353.637C853.13 352.752 853.716 351.963 854.449 351.325C855.182 350.687 856.044 350.215 856.976 349.94C857.908 349.666 858.889 349.596 859.851 349.735L940.801 361.478C942.4 361.701 943.865 362.494 944.926 363.711C945.988 364.927 946.574 366.486 946.578 368.1C956.913 408.456 957.38 481.636 956.989 557.673C956.996 558.563 956.827 559.445 956.49 560.269C956.154 561.093 955.659 561.842 955.031 562.473C954.404 563.105 953.658 563.606 952.836 563.948C952.015 564.29 951.133 564.466 950.243 564.466H928.429C926.819 564.473 925.261 563.901 924.038 562.856C922.815 561.811 922.008 560.362 921.764 558.772L908.305 473.273C908.109 472.022 907.466 470.885 906.495 470.071C905.524 469.257 904.292 468.821 903.025 468.845C901.758 468.868 900.542 469.349 899.602 470.198C898.662 471.047 898.061 472.208 897.911 473.465L887.227 562.762C887.026 564.397 886.234 565.903 885.001 566.997C883.767 568.091 882.177 568.698 880.527 568.703C880.421 568.703 880.314 568.7 880.207 568.694Z" fill="#2F2E41"/>
<path d="M894.451 368.108C876.611 358.203 862.671 355.601 855.95 354.93C855.057 354.844 854.191 354.578 853.404 354.147C852.617 353.716 851.926 353.13 851.372 352.424C850.807 351.713 850.391 350.895 850.151 350.019C849.911 349.143 849.852 348.228 849.976 347.328L869.373 203.425C870.49 195.006 873.744 187.013 878.825 180.206C883.907 173.399 890.647 168.005 898.404 164.536C905.913 161.087 914.18 159.615 922.419 160.26C930.658 160.906 938.594 163.647 945.474 168.223C946.138 168.665 946.791 169.116 947.43 169.577C955.353 175.377 961.379 183.391 964.751 192.609C968.122 201.827 968.688 211.836 966.376 221.374C954.481 269.998 950.396 349.713 949.697 365.2C949.642 366.52 949.198 367.794 948.419 368.862C947.641 369.93 946.563 370.743 945.322 371.2C938.004 373.858 930.282 375.232 922.495 375.261C912.688 375.321 903.03 372.858 894.451 368.108Z" fill="#3F3D56"/>
<path d="M910.676 144.997C931.012 144.997 947.499 128.522 947.499 108.2C947.499 87.877 931.012 71.4023 910.676 71.4023C890.339 71.4023 873.852 87.877 873.852 108.2C873.852 128.522 890.339 144.997 910.676 144.997Z" fill="#A0616A"/>
<path d="M936.734 137.312C929.864 144.624 917.106 140.699 916.211 130.709C916.141 129.934 916.146 129.153 916.226 128.378C916.689 123.953 919.247 119.936 918.634 115.264C918.495 114.101 918.062 112.993 917.375 112.044C911.9 104.719 899.05 115.321 893.884 108.689C890.716 104.623 894.44 98.2213 892.009 93.6766C888.8 87.6785 879.297 90.6374 873.337 87.3525C866.707 83.6977 867.103 73.5312 871.468 67.3475C876.791 59.8062 886.124 55.7821 895.341 55.2022C904.558 54.6223 913.711 57.112 922.316 60.4631C932.093 64.2705 941.788 69.5324 947.804 78.1231C955.121 88.5703 955.825 102.616 952.166 114.832C949.94 122.263 942.343 131.341 936.734 137.312Z" fill="#2F2E41"/>
<path d="M965.895 173.087C965.25 170.061 959.718 165.926 951.802 162.555C939.078 157.405 925.316 155.331 911.638 156.503C897.96 157.674 884.753 162.058 873.091 169.297C872.277 169.34 871.501 169.65 870.881 170.178C870.26 170.705 869.831 171.422 869.658 172.218L843.031 289.902L839.567 305.228L837.274 315.371L833.81 330.653L831.966 338.818C831.848 339.34 831.843 339.881 831.952 340.405C832.06 340.929 832.279 341.424 832.594 341.857C832.909 342.289 833.313 342.65 833.779 342.914C834.245 343.178 834.762 343.339 835.295 343.387L950.273 353.305C950.377 353.305 950.497 353.32 950.602 353.32C951.551 353.315 952.462 352.95 953.152 352.299C953.842 351.648 954.259 350.761 954.32 349.815L955.415 333.17L956.584 315.371L957.094 307.655L958.248 289.902L965.909 173.282V173.177L965.895 173.087Z" fill="#FF9315"/>
<path d="M777.237 180.495C777.421 181.303 777.541 182.125 777.595 182.952L841.999 220.08L857.654 211.075L874.342 232.907L840.853 256.759L767.378 198.835C764.381 199.943 761.118 200.113 758.022 199.323C754.926 198.532 752.144 196.819 750.046 194.41C747.949 192.001 746.635 189.012 746.279 185.838C745.923 182.665 746.542 179.459 748.054 176.646C749.566 173.833 751.9 171.547 754.744 170.091C757.588 168.636 760.808 168.08 763.976 168.497C767.144 168.915 770.109 170.287 772.478 172.43C774.847 174.573 776.507 177.386 777.237 180.495H777.237Z" fill="#A0616A"/>
<path d="M844.3 216.923C844.192 215.924 844.311 214.913 844.646 213.966C844.982 213.019 845.526 212.159 846.238 211.45L879.017 178.686C882.265 175.44 886.6 173.511 891.187 173.27C895.774 173.03 900.288 174.494 903.858 177.382C907.428 180.27 909.802 184.377 910.521 188.91C911.241 193.443 910.255 198.082 907.755 201.933L884.412 237.878C883.436 239.376 881.906 240.426 880.156 240.799C878.407 241.171 876.581 240.834 875.08 239.863L847.337 221.872C846.492 221.326 845.781 220.599 845.256 219.742C844.73 218.886 844.403 217.922 844.3 216.923Z" fill="#3F3D56"/>
<path d="M958.248 289.902L957.093 307.655L839.567 305.228L843.03 289.902H958.248Z" fill="#CCCCCC"/>
<path d="M956.585 315.371L955.414 333.17L833.81 330.653L837.274 315.371H956.585Z" fill="#CCCCCC"/>
<path d="M911.397 36.7059C898.934 36.7072 886.961 41.5557 878.014 50.2246C869.066 58.8935 863.846 70.7022 863.459 83.1501H854.425C853.63 83.1501 852.867 83.4658 852.305 84.0277C851.743 84.5896 851.427 85.3518 851.427 86.1465V98.132C851.427 98.9267 851.743 99.6888 852.305 100.251C852.867 100.813 853.63 101.128 854.425 101.128H956.374C957.17 101.128 957.932 100.813 958.495 100.251C959.057 99.6888 959.373 98.9267 959.373 98.132V84.6482C959.373 78.3523 958.132 72.118 955.721 66.3014C953.31 60.4847 949.776 55.1996 945.321 50.7477C940.866 46.2959 935.577 42.7645 929.757 40.3552C923.936 37.9459 917.697 36.7058 911.397 36.7059Z" fill="#FC9216"/>
<path d="M162.091 513.966C152.602 517.299 142.414 518.134 132.509 516.391C122.604 514.647 113.315 510.384 105.537 504.011C85.7291 487.398 79.5187 460.026 74.4655 434.682L59.519 359.719L90.8109 381.25C113.314 396.734 136.324 412.714 151.906 435.142C167.487 457.57 174.288 488.186 161.769 512.454" fill="#E6E6E6"/>
<path d="M159.416 604.725C162.583 581.672 165.84 558.322 163.618 535.022C161.645 514.328 155.328 494.116 142.466 477.544C135.638 468.764 127.331 461.242 117.917 455.315C115.462 453.766 113.203 457.654 115.647 459.196C131.936 469.483 144.535 484.674 151.627 502.578C159.461 522.488 160.719 544.192 159.369 565.343C158.552 578.133 156.822 590.84 155.079 603.53C154.941 604.104 155.027 604.709 155.319 605.222C155.61 605.735 156.086 606.119 156.65 606.295C157.225 606.45 157.838 606.372 158.355 606.078C158.873 605.784 159.254 605.298 159.416 604.725Z" fill="#F2F2F2"/>
<path d="M128.911 563.931C124.841 570.112 119.247 575.141 112.668 578.535C106.089 581.928 98.7462 583.571 91.3472 583.305C72.3319 582.403 56.4793 569.141 42.2089 556.55L0 519.309L27.9353 517.973C48.0247 517.012 68.6324 516.116 87.7669 522.307C106.901 528.498 124.548 543.397 128.047 563.189" fill="#E6E6E6"/>
<path d="M168.367 617.977C153.123 591.023 135.441 561.067 103.847 551.492C95.0618 548.839 85.8505 547.888 76.7085 548.692C73.8273 548.94 74.5468 553.378 77.4228 553.131C92.7467 551.859 108.041 555.903 120.731 564.58C132.942 572.886 142.45 584.434 150.497 596.68C155.427 604.18 159.842 611.999 164.258 619.808C165.669 622.303 169.794 620.502 168.367 617.977Z" fill="#F2F2F2"/>
</g>
<defs>
<clipPath id="clip0">
<rect width="1115" height="624" fill="white"/>
</clipPath>
</defs>
</svg>
